# xmcd
#
# Track frame offsets:
#	150
#	14448
#	29641
#	41825
#	56381
#	72012
#	89391
#	106382
#	118658
#	130706
#	144295
#	159263
#	176351
#	189446
#
# Disc length: 2768 seconds
#
# Revision: 1
# Processed by: cddbd v1.5.2PL0 Copyright (c) Steve Scherf et al.
# Submitted via: audiograbber 1.82.02
#
DISCID=b40ace0e
DTITLE=The High-Jacks - Stop, look and listen
DYEAR=2006
DGENRE=Rockabilly
TTITLE0=Drinkin' wine spo-dee-o-dee
TTITLE1=Honky tonk myself to death
TTITLE2=Stop, look and listen
TTITLE3=Cleopatra, Queen of denial
TTITLE4=The hottest thing in town
TTITLE5=Whiskey valentine
TTITLE6=Where the Rio de Rosa flows
TTITLE7=Cadillac cowboy
TTITLE8=Right or wrong
TTITLE9=I am what I am
TTITLE10=T-R-O-U-B-L-E
TTITLE11=My heart's breakin' loneliness taken
TTITLE12=All I need
TTITLE13=That lucky ol' sun
EXTD=
EXTT0=
EXTT1=
EXTT2=
EXTT3=
EXTT4=
EXTT5=
EXTT6=
EXTT7=
EXTT8=
EXTT9=
EXTT10=
EXTT11=
EXTT12=
EXTT13=
PLAYORDER=
